<svg width="201" height="202" viewBox="0 0 201 202" fill="none" xmlns="http://www.w3.org/2000/svg">
<path d="M59.9313 129.631C59.9313 129.631 52.5577 142.05 50.2513 151.184C47.9623 160.301 49.2204 163.871 51.719 171.313C54.5846 179.81 58.0617 186.715 64.7539 182.642C70.1705 179.341 70.7471 171.396 69.9259 168.246C69.1047 165.095 68.3708 160.704 68.7028 158.81C69.0348 156.916 72.7216 148.351 75.6745 144.262C78.6274 140.173 78.6274 134.189 78.1382 133.72C77.6315 133.251 59.9313 129.631 59.9313 129.631ZM77.0723 190.905C77.0723 190.905 74.9756 202 76.0939 202C77.1947 202 84.9527 201.648 87.661 199.871C90.3693 198.095 92.7981 192.078 95.0346 185.24C97.7429 176.977 101.517 166.385 102.408 163.771C104.051 158.977 105.85 154.1 105.85 154.1C105.85 154.1 114.202 153.379 119.375 153.162C127.622 152.81 133.353 152.441 134.628 153.279C136.236 154.335 143.627 159.111 145.444 161.659C148.153 165.43 138.805 183.128 138.805 183.128C138.805 183.128 132.165 188.793 132.409 191.978C132.654 195.162 139.049 194.81 144.71 194.575C150.372 194.341 153.394 192.799 154.181 191.978C157.134 188.91 160.209 180.531 162.183 173.693C164.07 167.139 166.604 163.067 165.87 158.826C165.136 154.586 142.753 136.418 142.753 136.418L87.7833 149.156L77.0723 190.905V190.905ZM46.0927 43.0992L74.9581 31.9371C74.9581 31.9371 72.1624 24.8644 68.563 18.7303C64.9636 12.5962 56.926 1.11564 53.1518 2.0542C49.3776 2.99275 45.4287 20.4901 44.5376 25.1829C42.7204 34.7528 46.0927 43.0992 46.0927 43.0992V43.0992Z" fill="#4D4D4D"/>
<path d="M19.322 67.763C19.2711 67.763 13.5214 67.763 9.60347 67.6484C5.66858 67.5339 2.00507 67.4194 2.00507 67.4194C2.00507 67.4194 0.190269 67.3704 0.190269 65.6528C0.190269 63.9188 2.07291 64.0006 2.07291 64.0006C2.07291 64.0006 5.75338 64.1151 9.70523 64.2296C13.5723 64.3441 19.2711 64.3441 19.322 64.3441C20.3057 64.3441 21.1028 65.113 21.1028 66.0617C21.1028 67.0105 20.3057 67.763 19.322 67.763ZM2.10683 78.1503C2.10683 78.1503 0.42772 78.592 0.0545838 76.8253C-0.318552 75.0423 1.3436 74.7969 1.3436 74.7969C1.3436 74.7969 6.21132 73.4065 9.56955 72.7194C12.8938 72.0324 19.8138 70.7728 19.8817 70.7565C20.8484 70.5765 21.7813 71.1981 21.9678 72.1305C22.1544 73.063 21.5099 73.9627 20.5431 74.1426C20.4753 74.1589 13.6062 75.4185 10.3158 76.0892C6.97456 76.7599 2.10683 78.1503 2.10683 78.1503V78.1503ZM10.3328 87C9.75611 87 9.19641 86.7219 8.84023 86.2312C8.58041 85.8506 8.48635 85.3867 8.57839 84.9398C8.67043 84.4928 8.94119 84.0988 9.33209 83.8429L18.6266 76.8253C19.0212 76.5747 19.5022 76.484 19.9656 76.5728C20.429 76.6615 20.8375 76.9227 21.1028 77.2997C21.6456 78.0849 21.4251 79.1481 20.611 79.688L11.8932 86.313C11.5879 86.5093 10.672 87 10.3328 87Z" fill="#B0B1B2"/>
<path d="M50.6448 107.317C50.6448 108.721 51.6723 119.153 52.8566 126.609C54.0757 134.383 57.7679 140.268 65.1174 144.966C73.9473 150.617 81.7845 151.553 81.7845 151.553C81.7845 151.553 79.085 167.552 75.4103 178.151C74.7485 180.074 70.7602 187.915 69.8894 189.219C69.0186 190.523 66.7023 194.284 67.068 196.993C67.4686 199.935 69.7675 203.345 79.5727 201.456C87.5143 199.935 88.2807 192.245 90.6144 186.009C91.4852 183.668 96.9015 169.224 97.9639 165.847C100.315 158.374 101.639 153.342 102.875 152.038C104.094 150.75 117.104 150.148 125.185 149.68C133.283 149.212 146.276 148.978 146.276 148.978C146.276 148.978 151.797 153.325 157.927 156.033C167.471 160.246 176.44 161.45 180.603 166.867C184.626 172.083 183.964 177.115 183.058 181.344C181.595 188.165 178.913 191.927 179.383 194.401C179.993 197.695 183.302 198.046 190.164 198.163C196.799 198.28 198.088 197.009 199.36 193.933C204.393 181.729 196.294 165.93 195.685 155.448C195.389 150.483 187.221 149.095 185.392 141.789C183.546 134.5 182.989 127.078 180.777 119.788C178.373 111.831 175.378 105.11 175.378 105.11C175.378 105.11 183.912 100.128 189.189 94.5943C194.466 89.0606 201.989 81.7213 198.907 67.21C196.451 55.6745 188.44 47.9842 169.439 42.2165C150.647 36.5156 146.816 43.136 146.276 47.466C145.544 53.3507 153.381 55.3903 161.724 56.9117C170.066 58.433 186.036 63.3147 181.334 76.6892C178.391 85.0482 165.398 90.1473 165.398 90.1473C165.398 90.1473 152.894 88.3417 135.983 90.1138C122.329 91.5683 115.85 94.9955 114.387 94.3769C112.175 93.4407 113.656 90.3813 115.989 86.8538C119.682 81.2532 124.21 73.914 124.21 64.7358C124.21 55.5575 119.682 50.609 119.682 50.609C119.682 50.609 119.56 32.6036 116.86 22.3721C114.161 12.1406 109.128 0.237334 103.85 0.00328082C98.5735 -0.230773 89.2559 12.1239 86.8177 16.0025C84.3795 19.8811 80.3216 27.8891 80.3216 27.8891C80.3216 27.8891 66.0405 26.234 54.0931 31.7677C43.6087 36.6159 37.1822 51.7792 33.9951 52.9495C30.808 54.1198 23.2843 53.8523 20.341 58.5668C19.1219 60.5061 19 73.4292 19 73.4292C19 73.4292 19.923 76.4886 20.8983 79.1635C21.6646 81.2532 25.6355 86.8538 30.4074 90.2141C36.6075 94.5775 44.8975 100.747 46.7262 102.151C48.5549 103.555 50.6448 107.317 50.6448 107.317V107.317Z" fill="#7D7F80"/>
<path d="M87.0025 34.6043C87.1252 37.0822 93.0516 40.3804 96.1375 42.5067C99.2235 44.633 103.659 49.2874 105.395 48.986C108.464 48.467 108.236 36.0274 107.622 30.4856C107.008 24.9439 103.922 15.7523 101.941 15.0491C99.9599 14.3459 94.84 21.3945 93.5426 23.3031C91.3158 26.6014 86.8798 32.3775 87.0025 34.6043V34.6043Z" fill="#E6974D"/>
<path d="M24.7062 68.879C25.5379 67.9408 38.1015 64.791 38.5085 62.6632C38.9155 60.5355 35.9427 58.8098 30.7049 57.637C25.998 56.5815 21.698 57.0004 20.6363 57.7208C19.2207 58.659 17.6458 63.4674 18.0705 68.3428C18.4952 73.3858 20.3001 77.5073 22.6359 79.7356C24.2638 81.2937 28.2276 83.7398 31.7135 83.9743C35.1995 84.2089 38.4377 82.8016 40.1896 81.1429C41.9414 79.4843 40.685 76.8204 38.0307 78.3115C35.3765 79.8026 33.6069 80.2549 31.3065 79.6518C28.9 79.0152 25.4494 76.7869 24.7239 73.1345C24.2638 70.9565 24.7062 68.879 24.7062 68.879V68.879Z" fill="#2F2F2F"/>
<path d="M76.1986 84.1877C75.9228 84.1877 75.6471 84.1223 75.3885 84.0078C75.3368 83.9914 70.545 81.6851 66.391 80.5238C62.1164 79.3298 58.1175 78.4138 58.0658 78.3975C57.1005 78.1685 56.4973 77.2525 56.7213 76.3202C56.9626 75.4042 57.9279 74.8317 58.9104 75.0444C58.9449 75.0607 63.0471 75.993 67.408 77.2198C71.8895 78.4792 76.8019 80.8509 77.0087 80.9491C77.3708 81.1223 77.6608 81.4063 77.8318 81.7552C78.0028 82.1041 78.0449 82.4975 77.9513 82.8719C77.8576 83.2463 77.6337 83.5798 77.3157 83.8186C76.9977 84.0573 76.6041 84.1873 76.1986 84.1877V84.1877ZM74.3371 96.0135C73.9579 96.0135 73.5787 95.899 73.2684 95.67C73.2167 95.6373 67.6665 91.7444 64.0986 89.4054C60.634 87.1482 55.8423 85.0382 55.7906 85.0219C55.3701 84.8237 55.0473 84.4782 54.8903 84.0584C54.7332 83.6386 54.7542 83.1773 54.9488 82.7719C55.1434 82.3665 55.4964 82.0487 55.9332 81.8856C56.3701 81.7225 56.8566 81.7269 57.2901 81.8978C57.497 81.9959 62.4094 84.1386 66.1325 86.5757C69.7522 88.9474 75.354 92.8567 75.4057 92.9057C76.2159 93.4619 76.371 94.5414 75.785 95.3102C75.4402 95.7681 74.8887 96.0135 74.3371 96.0135ZM65.7705 102C65.3396 102 64.9087 101.853 64.564 101.558L52.6018 91.4336C51.8606 90.7957 51.7917 89.7162 52.4639 89.0129C53.1361 88.3095 54.2738 88.2441 55.0149 88.882L66.9771 99.0067C67.2486 99.239 67.4397 99.5438 67.5252 99.881C67.6106 100.218 67.5865 100.572 67.4559 100.896C67.3253 101.22 67.0944 101.499 66.7935 101.696C66.4927 101.893 66.1361 101.999 65.7705 102V102Z" fill="#B0B1B2"/>
<path d="M65.6362 62.3436C67.9262 58.5325 67.2495 54.0378 64.1246 52.3043C60.9998 50.5709 56.6102 52.2551 54.3202 56.0662C52.0301 59.8773 52.7069 64.3721 55.8317 66.1055C58.9565 67.839 63.3461 66.1547 65.6362 62.3436Z" fill="#010000"/>
<path d="M59.4411 57.853C58.5473 59.473 56.9872 60.511 55.7033 59.7403C54.4195 58.9697 55.1508 56.5003 55.8659 55.5724C56.5809 54.6444 57.8647 53.4805 59.1323 54.2512C60.4324 55.0376 60.0423 56.7834 59.4411 57.853Z" fill="#DEDEDE"/>
</svg>
