<svg width="71" height="71" viewBox="0 0 71 71" fill="none" xmlns="http://www.w3.org/2000/svg">
<path d="M2.10675 35.6808L1.87283 35.563C1.34653 35.2685 0.937176 34.8269 0.644783 34.2674C0.235433 33.5018 0.0599976 32.7951 0.0599976 32.059L0.118476 31.6762C0.118476 31.0872 0.264673 30.5572 0.527826 30.0566L0.761741 29.615C0.878698 29.3794 1.05413 29.1733 1.20033 28.9671C1.37577 28.761 1.40501 28.496 1.34653 28.2604L1.20033 27.7893C1.02489 27.2004 0.907937 26.6115 0.907937 26.0226L0.820219 25.6692C0.820219 25.0214 0.995655 24.3736 1.40501 23.9025L1.6974 23.5197C1.90207 23.2252 2.22371 23.0485 2.57458 22.9308C2.86697 22.8424 3.07165 22.548 3.10088 22.1946L3.15936 21.1935C3.15936 20.3984 3.53947 19.6623 4.12426 19.1323L4.826 18.6022C4.9722 18.455 5.1184 18.3078 5.23535 18.0722C5.38155 17.8955 5.41079 17.66 5.38155 17.4833C5.32307 17.1888 5.38155 17.1005 5.52775 17.0711C5.99557 17.2477 6.28797 17.1888 6.49264 16.9533L6.87275 16.4527L7.92537 15.2749C8.21776 14.9804 8.33472 14.4504 8.15928 14.0381L7.80841 13.2725C7.74993 13.0959 7.80841 12.8897 7.95461 12.8309C8.33472 12.8309 8.59787 12.9781 8.71483 13.2137L8.83179 13.4198C9.00722 13.7731 9.41657 13.9498 9.70896 13.8026C10.3522 13.567 10.8785 13.5081 11.3756 13.5081H12.3113C12.9545 13.5081 13.4808 13.0664 13.5978 12.3892C13.7147 11.5647 14.0071 10.9169 14.4165 10.4752C14.8551 9.97462 15.3521 9.59182 15.9369 9.29736C16.6972 8.88512 17.165 8.29621 17.3112 7.53062C17.5159 6.58835 18.0129 5.9111 18.6854 5.46941L20.9076 4.20324L21.5509 3.82045C21.931 3.58488 22.2819 3.29042 22.5743 2.93707L23.159 2.23037C23.4514 1.93592 23.7438 1.7298 24.0947 1.64146C24.3871 1.55312 24.7964 1.49423 25.1473 1.52367L26.3169 1.61201C26.9017 1.61201 27.3695 1.75924 27.8373 1.96536L28.1297 2.11259C28.4221 2.23037 28.7145 2.17148 28.8607 1.96536L29.1239 1.81813L30.3811 0.493072C30.6735 0.198614 31.0244 0.0808313 31.4045 0.139723C31.7846 0.198614 32.1647 0.345843 32.5156 0.522518C33.0419 0.816976 33.4805 0.934759 33.9776 0.934759H34.27C34.9132 0.934759 35.5565 1.0231 36.1998 1.17033L36.6384 1.28811C37.0769 1.40589 37.5155 1.22922 37.8079 0.875868C37.8956 0.728639 38.1003 0.699193 38.2173 0.816976C38.305 0.875868 38.3342 0.934759 38.3635 1.0231C38.422 1.61201 38.7728 2.0537 39.2407 2.20093L39.7085 2.34816C40.2055 2.49539 40.6441 2.81929 40.9365 3.23153C41.2289 3.67322 41.5798 4.1149 41.9891 4.40936L42.2815 4.70382C42.5739 4.99828 42.9833 5.11606 43.3926 5.08661H45.1177C45.8195 5.08661 46.492 5.2044 47.1645 5.49886C47.8078 5.79331 48.4803 5.85221 49.0943 5.61664C49.7376 5.41052 50.4101 5.32218 51.0826 5.41052L52.3399 5.61664C52.9246 5.67553 53.5094 5.96999 53.8603 6.41168L54.0065 6.5589C54.2989 6.85336 54.5913 7.23616 54.8837 7.6484C55.0591 8.03119 55.4685 8.23731 55.8778 8.23731H57.6906C58.1292 8.23731 58.5678 8.32565 58.9187 8.53177C59.2988 8.82623 59.6204 9.12069 59.9128 9.41515L60.2052 9.79794C60.5561 10.2102 60.7315 10.7697 60.7023 11.3586C60.7023 11.8297 61.0532 12.2419 61.521 12.2419L62.1058 12.3008C62.5151 12.3008 62.866 12.5953 63.0707 12.9781L63.3631 13.567L64.1233 15.2749C64.2402 15.5693 64.2695 15.8638 64.2403 16.0993C64.2403 16.3938 64.328 16.6294 64.5326 16.7471L64.825 16.9533C65.2051 17.2477 65.4098 17.6894 65.3513 18.19L65.1467 19.5739L65.0882 20.1629C65.0297 20.4573 65.1759 20.8401 65.4391 21.0462C65.8777 21.3407 66.0823 21.7235 66.1116 22.1652V22.7541C66.1116 23.0485 66.0531 23.4019 65.8192 23.6375C65.6437 23.873 65.5268 24.1675 65.5268 24.5208L65.6145 25.1981C65.6145 25.6692 65.9069 26.0815 66.1993 26.3759C66.6086 26.6704 66.8425 27.1415 66.901 27.6126C67.018 28.3488 67.0472 28.9377 67.0472 29.5266V30.2039C67.0472 30.4394 67.0472 30.675 67.1349 30.9106C67.1934 31.1167 67.3396 31.3228 67.515 31.4406L68.0998 31.8823C68.6846 32.2651 69.094 32.7657 69.3279 33.4429C69.6203 34.0907 69.708 34.768 69.708 35.4452V35.6808C69.708 36.2108 69.6495 36.7703 69.4741 37.2709C69.3279 37.8009 69.3571 38.3015 69.5618 38.7431C69.7957 39.1554 69.9419 39.6265 70.0004 40.1271C70.1173 40.716 70.0589 41.3049 69.8542 41.7761L69.7957 41.9822C69.6495 42.3355 69.4156 42.6594 69.1232 42.9245C68.8308 43.2189 68.5384 43.3956 68.363 43.6017C68.1876 43.7784 68.0706 44.0728 68.1583 44.3378L68.246 44.7501C68.3922 45.339 68.3922 45.9279 68.246 46.4579V46.6935C68.1291 47.1352 67.9536 47.518 67.7782 47.8713C67.5735 48.2541 67.2811 48.5486 66.901 48.7547L66.4624 49.0492C66.2578 49.167 66.1116 49.432 66.1116 49.697C66.1116 49.9914 65.9946 50.2859 65.8192 50.4626L65.3806 51.0515C65.0882 51.4343 64.7081 51.7582 64.2987 51.9349C63.8894 52.2293 63.5385 52.5238 63.2754 52.8182C62.983 53.1716 62.749 53.5838 62.6321 53.9961C62.5151 54.5261 62.1058 54.8206 61.6672 54.8206H60.0883C59.6789 54.8206 59.2988 55.115 59.1234 55.4684C58.9187 55.9395 58.714 56.2634 58.4509 56.5579C58.1585 56.8523 57.983 57.2057 57.8661 57.6179C57.8076 57.9712 57.5152 58.2068 57.2228 58.089C56.8427 57.9124 56.4626 58.089 56.2872 58.3835C55.9363 58.9724 55.5854 59.4141 55.2053 59.7969L55.0006 59.9736C54.6205 60.268 54.1235 60.5036 53.6849 60.5036C53.1586 60.5036 52.8954 60.7392 52.8077 61.0925C52.72 61.387 52.6615 61.7698 52.6323 62.0937C52.5738 62.447 52.4568 62.7709 52.3399 63.0654L52.1937 63.242C51.9013 63.6837 51.6674 64.1254 51.375 64.5082L51.258 64.6849C50.8779 65.1855 50.3808 65.5683 49.796 65.7155C49.0943 65.9511 48.4803 66.0099 47.8662 66.0099H47.4569C47.1645 66.0099 46.8721 66.1866 46.6674 66.4811L46.492 66.7755L46.3166 67.1289L45.9364 67.7767C45.6441 68.3067 45.2055 68.6601 44.6207 68.8367C44.0359 68.984 43.3634 69.0429 42.7494 69.0134L42.2815 68.9545C41.8722 68.9545 41.4921 68.8367 41.112 68.6601C40.8196 68.5423 40.4102 68.6601 40.2348 68.9545C39.9424 69.3668 39.5915 69.6023 39.2114 69.7201L38.3342 70.0146C37.7494 70.1618 37.1062 70.1618 36.4922 70.0146L36.0243 69.8673C35.7319 69.8673 35.4395 69.7201 35.2056 69.5729C34.9132 69.4257 34.6208 69.3668 34.3284 69.3962L33.9483 69.4551C33.3636 69.514 32.8372 69.4551 32.3109 69.3079L31.5215 69.1312C31.1706 69.0134 30.849 68.7779 30.6443 68.4539C30.4981 68.1595 30.1765 67.9239 29.7671 67.865H28.8315C28.2467 67.7767 27.7204 67.5706 27.3695 67.1289L26.1999 66.0099L25.7906 65.6566L25.1473 65.1855L24.7672 64.891C24.3286 64.5966 23.8023 64.361 23.2468 64.3021L21.4924 64.0076C21.317 64.0076 21.2 63.9487 21.0246 63.9193L20.3521 63.7721C20.0597 63.7132 19.7673 63.4776 19.5626 63.1832C19.3872 62.8887 19.0655 62.7709 18.7731 62.8887C18.1884 63.1243 17.7205 63.1832 17.2527 63.2715H16.8434C16.0831 63.3304 15.3814 63.2126 14.6796 62.8887C13.9779 62.5942 13.5101 62.1525 13.0715 61.5931C12.7206 61.0925 12.1943 60.7097 11.551 60.5919L10.7323 60.4152C10.1476 60.2975 9.56277 60.0619 9.03646 59.7086C8.45168 59.2963 8.15928 58.9135 7.92537 58.4424C7.69145 58.0007 7.54526 57.5001 7.51602 56.9701V56.7345C7.45754 56.1456 7.04819 55.6156 6.49264 55.4684C5.82014 55.2622 5.32307 54.9678 4.88448 54.585C4.47513 54.2022 4.24122 53.6427 4.24122 53.0538L4.2997 51.7582C4.2997 51.2576 4.1535 50.8159 3.80263 50.492C3.45176 50.1387 3.21784 49.697 3.21784 49.2258L3.13012 48.1658C3.07165 47.4002 2.92545 46.6346 2.75001 45.869C2.57458 45.1918 2.83773 44.5145 3.39328 44.1906L3.59795 44.0434C3.89035 43.8373 4.0073 43.4545 3.83187 43.1011L3.59795 42.8067C3.30556 42.5122 3.01317 42.3061 2.72077 42.2178C2.48686 42.1589 2.42838 41.9233 2.42838 41.7761L2.72077 41.4227C2.89621 41.2166 2.86697 40.8927 2.72077 40.716C2.48686 40.4804 2.3699 40.186 2.34066 39.8915L2.28218 37.8303C2.28218 37.4181 2.34066 37.0058 2.45762 36.5936C2.57458 36.2403 2.45762 35.828 2.10675 35.6513V35.6808ZM31.0536 31.7939C31.2583 31.5878 31.2291 31.205 31.0536 31.0578C30.7613 30.8222 30.5566 30.5572 30.3811 30.2628L30.0888 29.7916C29.8841 29.4088 29.6209 29.0849 29.3285 28.7905L29.2701 28.7316C28.9777 28.496 28.773 28.2016 28.5975 27.8482C28.4514 27.5537 28.4514 27.2593 28.5975 26.9648L28.773 26.6704C28.9484 26.3759 29.0654 25.9637 29.0654 25.6103V25.4925C29.0654 25.1981 28.9484 24.9036 28.773 24.6092C28.656 24.3736 28.5391 24.0791 28.4806 23.7847V23.608C28.3929 23.2547 28.4806 22.8719 28.7145 22.5774C28.9484 22.1946 29.1239 21.8413 29.2116 21.3996V21.3407C29.3285 21.0462 29.2701 20.6634 29.0946 20.369C28.9192 20.0745 28.8607 19.7801 28.9777 19.4267L29.1823 18.8378C29.3578 18.3078 29.6209 17.8366 29.9718 17.4244L30.3811 16.9827L30.6735 16.6294L30.849 16.4527C31.0244 16.276 31.0536 15.9816 30.9075 15.746C30.7613 15.4515 30.6735 15.1571 30.732 14.8626L30.7905 14.4504C30.8782 13.8615 31.0829 13.2725 31.463 12.8014L31.58 12.6836C32.0185 12.0947 32.5741 11.7119 33.2174 11.5058L34.0068 11.2113C34.3577 11.0936 34.5916 10.7108 34.5916 10.328C34.5916 9.85683 34.7378 9.44459 35.001 9.0618L35.1472 8.91457C35.4395 8.41399 35.7904 7.91341 36.0243 7.38339L36.229 7.00059C36.2875 6.91225 36.3167 6.79447 36.3167 6.70613C36.3167 6.20555 36.0243 5.76387 35.5565 5.73442L34.27 5.64608C33.539 5.58719 32.808 5.64608 32.1063 5.64608L29.6209 5.94054C29.2408 5.94054 28.9484 6.235 28.9192 6.64724C28.9192 7.05948 28.6268 7.41283 28.2759 7.53062L27.2233 7.82507L26.9309 7.91341L26.0537 8.20787C25.4105 8.41399 24.8842 8.88512 24.5918 9.53293L24.3578 9.91572C24.0655 10.5635 23.5684 11.0936 22.9544 11.4764C22.3696 11.8591 22.0772 12.4775 22.0187 13.1842V13.4787C21.9602 14.0676 21.7848 14.6565 21.4339 15.0687L21.2877 15.3043C21.0538 15.5988 20.9953 15.9816 21.1415 16.3055C21.2877 16.6588 21.3754 17.0416 21.3462 17.4244V18.985C21.3462 19.3973 21.0538 19.7506 20.7614 19.8684C20.3521 20.0156 20.0889 20.3395 19.972 20.7518L19.8258 21.3407C19.7088 21.9296 19.9135 22.5185 20.4105 22.8719C20.8784 23.2252 21.1708 23.7552 21.2877 24.4031V24.9331C21.3754 25.522 21.6971 26.1109 22.2234 26.4054C22.7497 26.7587 23.159 27.2887 23.393 27.8777L23.5392 28.3488C23.7731 28.9966 24.2994 29.3794 24.8842 29.4383H25.0596C25.5859 29.4383 26.0537 29.7327 26.3461 30.2039C26.6385 30.675 27.1063 30.9989 27.6327 31.0872L28.4514 31.3228C28.9484 31.47 29.4162 31.7351 29.7964 32.1178L29.8548 32.1767C30.1472 32.4123 30.6151 32.3829 30.8782 32.059L31.0829 31.8234L31.0536 31.7939ZM34.3869 29.0849C34.6793 29.2616 34.9717 29.1733 35.0887 28.9083L35.1764 28.761C35.3811 28.3488 35.6442 27.9365 35.9366 27.5832L36.5214 26.6998C36.6091 26.6998 36.6384 26.6409 36.6676 26.582L37.3693 25.6398C37.6617 25.3453 38.0126 25.1392 38.422 25.1392C38.8021 25.1392 39.1237 24.9331 39.2991 24.5503C39.4161 24.138 39.5915 23.7552 39.9424 23.4313L40.0886 23.2547C40.381 22.9602 40.6734 22.813 40.9658 22.6658C41.3459 22.6069 41.6968 22.548 42.0476 22.548H42.9248C43.2757 22.548 43.5681 22.4007 43.7435 22.1063C43.9189 21.8118 44.1821 21.6057 44.4745 21.4585L44.7669 21.3407C45.2347 21.1346 45.761 20.9873 46.2873 20.9284L46.8721 20.8696C47.223 20.8696 47.6031 20.8696 47.954 21.0757C48.2464 21.2818 48.6265 21.2524 48.9189 21.0168L49.1235 20.899C49.5621 20.6045 50.0592 20.369 50.5855 20.3101H50.644C51.2288 20.1923 51.7551 20.1923 52.3399 20.2217H52.6323C53.217 20.3101 53.7141 20.5162 54.0942 20.9579L54.1819 21.0757C54.4743 21.3701 54.9422 21.6057 55.3515 21.6057H55.8486C55.9948 21.6057 56.141 21.5468 56.2287 21.3996C56.3164 21.3112 56.4626 21.2229 56.6088 21.2229H56.9012C57.3105 21.2229 57.6906 21.3407 58.0708 21.4585L58.5678 21.6646C59.0357 21.8118 59.5327 21.9591 60.0298 22.0179H60.3807C60.6146 22.0179 60.7608 21.8707 60.7608 21.6646C60.7608 21.3701 60.7023 21.0757 60.5561 20.8401L60.3514 20.369C60.1175 19.9862 59.9421 19.5739 59.7666 19.1911L59.7082 19.0439C59.562 18.7495 59.562 18.455 59.7082 18.1605V18.0133C59.7666 17.7777 59.6497 17.5127 59.4158 17.4244H59.1819C58.714 17.2772 58.3047 17.0122 58.0123 16.6294L57.7199 16.3349C57.4275 16.0404 57.2521 15.5988 57.1351 15.1571C56.9889 14.7743 56.6673 14.4798 56.2579 14.4798H55.0299C54.5913 14.4209 54.2112 14.1854 53.948 13.832L53.8311 13.6848C53.6264 13.3903 53.451 13.037 53.334 12.6836C53.1878 12.3892 52.8662 12.2125 52.5738 12.3008L52.2229 12.4186C51.6381 12.6247 51.0533 12.7131 50.4685 12.6542L50.0007 12.5953C49.5036 12.5953 49.0358 12.3892 48.6557 12.0947L48.3633 11.8886C48.1294 11.7119 47.8955 11.5941 47.6323 11.4764C47.3399 11.3586 47.106 11.4175 46.9306 11.6236L46.7844 11.8003C46.492 12.0947 46.0826 12.3303 45.6733 12.3892L44.0944 12.4775C43.802 12.4775 43.5096 12.6247 43.3049 12.8309C43.071 13.037 42.8078 13.1842 42.5155 13.2431H42.457C42.1646 13.2431 41.8722 13.4492 41.5798 13.6553V13.7142C41.2874 14.0087 40.9073 14.1559 40.5272 14.1559L40.4102 14.2148C40.0594 14.2148 39.7085 14.2148 39.3576 14.3031H39.0067C38.5097 14.3915 38.1296 14.8037 38.0126 15.3337L37.8956 16.011C37.8079 16.4821 37.6033 16.8944 37.3109 17.2772C37.0185 17.6305 36.6676 17.8661 36.229 17.8661H35.7904H35.7319C35.4395 17.925 35.1471 18.2489 35.2056 18.6022C35.2641 19.1028 35.2056 19.5445 35.1179 19.9862L35.001 20.4868C34.884 20.9284 34.5916 21.2818 34.2115 21.429L34.0361 21.5174H33.9776C33.8021 21.6351 33.6852 21.9002 33.8314 22.1063C34.0068 22.4007 34.0653 22.6952 34.0361 22.9897L33.9483 23.9319C33.9483 24.2853 33.8021 24.6092 33.6559 24.9036C33.4805 25.1981 33.4805 25.4925 33.5975 25.787L33.8899 26.4348C34.0361 26.7293 34.0653 27.0237 33.9776 27.3771C33.8899 27.6715 33.8314 27.966 33.8606 28.2604C33.8606 28.5549 34.0361 28.8494 34.27 28.9671L34.3284 29.026L34.3869 29.0849ZM57.486 50.3742C57.7784 50.6687 58.217 50.7865 58.5678 50.5509L59.1526 50.1681C59.445 49.962 59.6789 49.6675 59.7959 49.2847V49.2258L60.0883 48.3425L60.2637 48.048L60.3807 47.7536L60.4976 47.5474C60.6146 47.3119 60.79 47.1352 61.0824 47.0469L61.1994 46.988C61.4333 46.9291 61.5795 46.6935 61.5795 46.4579C61.5795 46.1635 61.7257 45.9279 61.8719 45.7218L62.1058 45.5157L62.6906 44.7501V44.6912C62.866 44.4556 62.983 44.1906 63.0414 43.8962C63.0999 43.6017 63.0414 43.3072 62.9245 43.0128L62.866 42.895C62.749 42.6005 62.6906 42.3944 62.6613 42.1294L62.5736 41.3049L62.4859 40.4216C62.4859 40.1271 62.6029 39.8326 62.7783 39.5382C62.983 39.3026 63.1292 39.0082 63.2461 38.7137V38.5959L63.3046 38.537C63.3631 38.2426 63.2169 37.9481 62.9537 37.9481C62.6613 37.8009 62.3689 37.5653 62.2812 37.212L62.1935 37.0353C62.0473 36.5053 61.9596 35.9752 61.9596 35.4452L62.0181 33.9729V33.8846C62.0181 33.384 61.6087 33.0012 61.1409 33.0012H61.0824C60.4976 33.0012 60.0298 32.8245 59.6204 32.4123L59.3865 32.1178L58.8017 31.4406L58.0415 30.5572C57.7491 30.145 57.4567 29.7916 57.0766 29.4383C56.7842 29.1438 56.3456 28.8494 55.9071 28.7905L55.3223 28.7021C55.0299 28.6432 54.6498 28.496 54.3281 28.2899C54.0942 28.1132 53.7433 28.1721 53.5094 28.4077L53.1293 28.8199L52.9539 28.9377C52.7492 28.9966 52.5445 28.8788 52.4568 28.6432C52.3399 28.2899 52.3399 27.8777 52.5153 27.5243V27.3476C52.5153 27.1415 52.3399 26.9943 52.1644 27.0532H51.6966C51.1703 27.0532 50.644 26.9943 50.1469 26.7587L49.8545 26.6409C49.5621 26.4937 49.2113 26.4054 48.8896 26.4054C48.5972 26.4054 48.3048 26.4643 48.0124 26.6409L47.8955 26.7293C47.5446 26.9648 47.1353 27.0826 46.7259 27.1121H45.761C45.3224 27.1121 44.8838 27.2593 44.5914 27.4949C44.2113 27.7304 43.802 27.8777 43.3634 27.966L42.5739 28.0838C42.2231 28.1721 41.8429 28.3193 41.5213 28.5844C41.2289 28.8788 40.8196 29.0555 40.4395 29.1733L40.2933 29.2322C39.8254 29.3794 39.4161 29.6738 39.1237 30.1155L38.7728 30.4689C38.5681 30.7633 38.5681 31.1167 38.7728 31.4111C38.9483 31.7056 39.2991 31.7939 39.65 31.7056L40.0886 31.5289C40.3225 31.4406 40.5857 31.5289 40.7903 31.6467C40.9658 31.7939 41.2289 31.8823 41.4921 31.8528L42.2231 31.7645C42.6324 31.7645 43.0418 31.7645 43.4511 31.8823C43.8897 32.0295 44.2698 32.1767 44.6207 32.4712C44.9716 32.7657 45.3517 32.8834 45.7903 32.9423C46.2288 33.0012 46.6674 33.0896 47.0768 33.2368L47.3692 33.2957C47.6616 33.384 47.8955 33.5901 48.0709 33.8846C48.2171 34.1202 48.3633 34.4735 48.3633 34.768V34.8563C48.3633 35.2097 48.6557 35.4452 48.9481 35.4452H49.1235C49.5914 35.4452 50.0884 35.5041 50.5855 35.6513L50.7902 35.7397C51.0826 35.8575 51.375 36.0341 51.5796 36.3286C51.8136 36.6231 51.9597 36.9175 52.0475 37.212L52.1352 37.6242C52.2229 38.0659 52.2521 38.5076 52.2521 38.9787V39.1259C52.2521 39.4204 52.4568 39.7149 52.7784 39.8326C53.0708 39.8915 53.4217 40.0093 53.7433 40.186L53.8895 40.2449C54.2696 40.4805 54.6498 40.7749 54.9422 41.1283L55.0883 41.3344C55.4685 41.7761 55.6731 42.3355 55.6731 42.895V43.1011C55.6731 43.5428 55.5854 43.9845 55.4392 44.3967C55.3223 44.7501 55.4392 45.1623 55.8193 45.2801L56.024 45.4273C56.4626 45.604 56.8427 45.9279 57.1351 46.3107C57.4275 46.7524 57.5445 47.253 57.5445 47.783V48.6664C57.486 48.9608 57.3983 49.1964 57.2521 49.4025C57.1059 49.6086 57.1059 49.9031 57.2521 50.1092L57.4275 50.4037L57.486 50.3742ZM38.7728 35.298H38.7143C38.5974 35.298 38.5389 35.4452 38.5681 35.5925L38.6851 36.1814C38.8021 36.6525 38.8605 37.1236 38.919 37.5948C38.9775 38.0659 39.2114 38.4781 39.5623 38.7726H39.6792C40.1178 39.1259 40.381 39.656 40.4102 40.186V41.6583C40.3517 41.9527 40.4102 42.2472 40.5857 42.4828L40.7319 42.63C41.0242 42.9833 41.1412 43.3956 41.1704 43.8078L41.2582 45.4273C41.2582 45.8101 41.0242 46.134 40.6734 46.1929L40.381 46.2518C40.1763 46.2518 40.0886 46.4874 40.0886 46.6935C40.0886 46.9291 40.1763 47.1941 40.264 47.4297V47.4885C40.3517 47.783 40.381 48.0775 40.3517 48.3719L40.2348 49.167C40.1178 49.7559 39.9424 50.2859 39.65 50.8159L39.4453 51.1693C39.2991 51.4637 39.0945 51.6404 38.8605 51.7582C38.5681 51.876 38.3635 52.1115 38.2758 52.406L38.0418 53.466C37.8956 54.055 37.6325 54.6439 37.2816 55.2328H37.2231C36.8723 55.7039 36.4337 56.1162 35.9074 56.4106L35.5565 56.6462L34.6793 57.0879C34.3869 57.2057 34.2115 57.4707 34.153 57.7946L34.0068 58.7663C33.9191 59.3552 33.7144 59.8558 33.3051 60.2386L32.925 60.6803L32.4864 61.1219L32.0478 61.5931C31.6969 62.0053 31.1706 62.182 30.5858 62.0937L29.5332 61.8875L28.5683 61.7698H28.3052C28.1882 61.8875 28.159 62.0642 28.2467 62.2409C28.4514 62.5942 28.773 62.8298 29.1239 62.8298L29.7671 62.9476C30.0595 62.9476 30.4104 63.0948 30.7028 63.242C30.9952 63.4482 31.2876 63.5954 31.6384 63.6837H31.6969C32.077 63.831 32.4864 63.8604 32.8665 63.831L33.3051 63.7721C33.8021 63.7132 34.27 63.7721 34.6793 63.9487L35.0302 64.0665C35.1764 64.1254 35.4103 64.0665 35.5565 63.9193C35.7319 63.7426 35.9074 63.6248 36.1413 63.5365L36.3752 63.4776C36.7553 63.3598 37.1354 63.3009 37.5448 63.3009H37.7787C38.1296 63.3009 38.4512 63.3598 38.7436 63.5365L38.8605 63.5954C39.0652 63.6837 39.2991 63.5954 39.4453 63.4187C39.533 63.2126 39.7377 63.0065 39.9424 62.8298L40.6734 62.3292L41.1412 62.0348L41.3751 61.8875C41.6675 61.6814 42.0769 61.5931 42.4277 61.5931L43.4803 61.5047C43.8897 61.4458 44.2406 61.1514 44.3575 60.7391C44.4745 60.2975 44.6499 59.8558 44.9423 59.473C45.2347 59.0902 45.5271 58.7663 45.8195 58.4718C46.1996 58.1774 46.5797 58.0301 46.9891 58.0007H47.223C47.6908 57.9124 48.0417 57.4707 48.0124 56.9995V56.9406V55.0267C48.0709 54.7322 48.1879 54.3494 48.3633 54.055L48.9481 53.1716L49.182 52.8771C49.3575 52.7299 49.4744 52.5238 49.6791 52.2882L49.9715 51.9054C50.1469 51.611 50.1469 51.2282 49.913 50.9631C49.6206 50.6687 49.4744 50.2565 49.4159 49.8442V49.7264C49.3575 49.2553 49.3574 48.7547 49.5036 48.2541V48.1069C49.6498 47.7241 49.8545 47.3413 50.0884 46.988C50.3223 46.6935 50.2931 46.2813 50.0007 46.0457L49.5036 45.604C49.0943 45.2507 48.8604 44.7206 48.8019 44.1906L48.7434 43.6017C48.7434 43.425 48.7434 43.2189 48.6849 43.0128L48.6265 42.5711C48.568 42.0705 48.2756 41.6877 47.8662 41.3933L47.6616 41.3344C47.3692 41.1577 47.0768 40.8927 46.8429 40.5393C46.609 40.2449 46.492 39.8326 46.4043 39.4204L46.3166 38.9198C46.3166 38.7431 46.1996 38.6254 46.0242 38.537L45.5563 38.3898L44.6207 38.0953C44.3283 38.0365 44.0359 37.8009 43.8312 37.5948H43.7727C43.5973 37.3592 43.3049 37.3592 43.1295 37.5359L42.8371 37.8303C42.7786 37.9187 42.7201 37.9481 42.6324 37.9187C42.457 37.9187 42.34 37.7714 42.3985 37.6242C42.457 37.1531 42.2815 36.6819 41.9014 36.3875L41.5213 36.093L40.6441 35.5041C40.4102 35.4158 40.0594 35.5041 39.9424 35.7986L39.8254 35.9752C39.8254 36.0341 39.7377 36.0636 39.7085 36.093C39.5915 36.093 39.4161 36.093 39.4161 35.9458L39.3284 35.7986C39.2407 35.6219 39.036 35.5041 38.8605 35.4452L38.7728 35.298ZM35.2641 38.2426L35.1179 38.0953C34.9717 37.9776 34.8255 38.007 34.6793 38.1542C34.4746 38.5076 34.2992 38.8904 34.2115 39.2732V39.3321C34.1238 39.7149 33.7729 39.9799 33.422 39.921H33.1296H33.0712C32.6618 39.921 32.3402 40.2743 32.3402 40.6866C32.3402 41.2166 32.1647 41.7466 31.8431 42.1589L31.6677 42.3355C31.3753 42.7183 30.9367 42.9833 30.4981 43.1306L30.2642 43.1895C29.9718 43.2778 29.7379 43.4839 29.6794 43.8373C29.6794 44.1317 29.504 44.4262 29.2701 44.6618L28.9777 44.8973C28.6268 45.2801 28.1005 45.4862 27.5742 45.5451L26.1122 45.6924C25.6444 45.6924 25.235 45.9868 24.9426 46.4285C24.6502 46.8702 24.2117 47.1646 23.7731 47.2235L23.1298 47.2824C22.662 47.3413 22.1649 47.3413 21.6678 47.2235L21.3754 47.1646L20.586 46.9585C20.2936 46.8702 20.0597 46.9585 19.8842 47.1646L19.5918 47.5474C19.2117 47.9891 18.6562 48.1952 18.1299 48.1364L16.2293 47.9008C15.9369 47.9008 15.703 47.7536 15.4399 47.6063C15.1475 47.4297 14.9428 47.2235 14.7381 47.0174L14.0071 46.134C13.9194 46.0751 13.7732 46.0457 13.627 46.0751L13.2177 46.2518L11.5803 46.6641C11.2879 46.7524 10.9078 46.6641 10.6154 46.4874C10.323 46.2518 9.97212 46.1929 9.62125 46.1929H9.24114C8.89026 46.2813 8.65635 46.6641 8.77331 47.0174L8.89026 47.6063C8.97798 47.9008 8.94874 48.2541 8.80255 48.5486C8.65635 48.8431 8.68559 49.1375 8.89026 49.432L9.0657 49.6675C9.29962 50.0209 9.65049 50.3153 9.94288 50.6098C10.2353 50.9043 10.5277 51.1987 10.7616 51.5815L11.2002 52.3766C11.4341 52.7888 11.785 53.0244 12.2528 53.0244C12.6914 53.0244 13.13 53.1716 13.4808 53.466L14.358 54.2905C14.5919 54.4966 14.9428 54.5261 15.1767 54.3494L15.3229 54.2905C15.4983 54.2905 15.6153 54.4083 15.6153 54.585V54.7322C15.6153 55.115 15.9077 55.4684 16.2878 55.6156L17.6036 55.91C18.0714 56.0573 18.5392 56.2045 18.9778 56.499H19.2117C19.4457 56.499 19.6503 56.2928 19.6211 56.0278V54.9972C19.6211 54.7028 19.738 54.4083 19.972 54.2905L20.1182 54.2316C20.2644 54.2905 20.4105 54.4083 20.3521 54.5261V55.0267C20.3521 55.4095 20.469 55.7628 20.7322 56.0278C21.0246 56.3223 21.4047 56.3812 21.7263 56.2634C22.0772 56.1162 22.4281 56.0867 22.8082 56.1162L23.89 56.1751C24.4163 56.2339 24.9134 56.1751 25.352 55.9689C25.8783 55.7923 26.3169 55.5567 26.7262 55.2328L26.9017 55.115L27.7788 54.32C28.0712 54.0255 28.4514 53.8783 28.8022 53.8783H29.9718C30.5566 53.8194 31.0829 53.2894 31.1414 52.7005L31.2583 52.1115C31.2583 51.7287 31.4338 51.3754 31.6969 51.0809C31.9893 50.7865 32.2817 50.6098 32.5741 50.492L32.925 50.3448C33.422 50.1387 33.8021 49.697 33.9776 49.167L34.153 48.4603C34.2992 47.8713 34.5916 47.2824 35.0302 46.8996L35.0887 46.8407C35.4395 46.5463 35.498 45.9574 35.2641 45.5451L35.1764 45.339C34.9717 45.0445 34.9425 44.6029 35.0887 44.2201C35.2349 43.8078 35.3811 43.4545 35.615 43.1011L35.9074 42.6889C36.0243 42.4533 36.0243 42.1 35.8489 41.8938C35.6735 41.6583 35.5565 41.3638 35.5565 41.0694L35.498 40.6571V39.656C35.5565 39.3615 35.498 38.9787 35.4103 38.6843L35.2933 38.3309L35.2641 38.2426ZM31.0829 36.0047V35.9164C31.0829 35.6219 30.9075 35.4452 30.6735 35.4452H29.9133C29.6209 35.5041 29.3285 35.5041 29.0946 35.4452H27.7788C27.1063 35.4452 26.4631 35.3274 25.8198 35.1508L25.1181 34.9741L24.5333 34.7974L23.2175 34.3557C22.5158 34.1496 21.9895 33.6785 21.6678 33.0307L21.5216 32.7362C21.317 32.2945 20.8784 32.059 20.4398 32.1473C19.9427 32.1473 19.4457 32.1473 18.9778 31.9117L18.6269 31.7645C17.9544 31.47 17.4574 30.8811 17.4574 30.0861L17.3404 29.2911C17.2527 28.8788 16.9895 28.496 16.6387 28.3488C16.2293 28.1721 15.8492 27.9365 15.4691 27.6715L15.3229 27.5832C14.8843 27.2298 14.5042 26.7587 14.2995 26.1992L14.2411 26.0226C14.0949 25.5514 14.0656 25.0509 14.1826 24.5503L14.2411 24.3736C14.358 23.9908 14.3873 23.608 14.3873 23.1958C14.3873 22.8424 14.2411 22.4891 13.9779 22.2241L13.5686 21.8413C13.1007 21.4585 12.8083 20.899 12.7791 20.2806C12.7206 19.6328 12.7206 19.0145 12.8376 18.3961V18.3078V18.2194C12.8376 17.8661 12.5452 17.6305 12.2528 17.6305H12.1651C11.785 17.6305 11.4633 17.8661 11.2879 18.2194C11.1417 18.6317 10.9078 18.9556 10.6446 19.2795L10.5277 19.4267L9.94288 20.0156L9.65049 20.3101C9.35809 20.6045 9.18266 21.0462 9.12418 21.4879C9.0657 21.9296 8.94874 22.3713 8.77331 22.7835L8.71483 22.9308C8.56863 23.2841 8.33472 23.608 8.04233 23.8141C7.74993 24.0497 7.54526 24.4031 7.54526 24.7564L7.48678 26.1109C7.48678 26.6998 7.39906 27.2887 7.19439 27.8777L7.13591 28.1132C6.98971 28.496 7.13591 28.9083 7.48678 29.0849L8.71483 29.615L8.83179 29.6738C8.9195 29.6738 8.94874 29.7327 8.97798 29.8211C9.0657 29.9389 8.97798 30.1155 8.89026 30.1155L8.59787 30.2628C8.42244 30.3217 8.30548 30.4983 8.247 30.7044L8.18852 30.9989V31.0578L7.89613 32.7068C7.83765 32.9423 7.83765 33.2073 7.83765 33.4724C7.83765 33.7079 7.98385 33.914 8.18852 34.0024L8.83179 34.2968C9.12418 34.4735 9.47505 34.6796 9.70896 34.8858L10.0014 35.1213C10.0891 35.2391 10.2353 35.3569 10.3522 35.4158L10.4692 35.5336C10.6739 35.7102 10.8201 35.9458 10.8785 36.2108L11.1709 37.5359C11.1709 37.8892 11.4633 38.1837 11.7557 38.272L12.2235 38.4192C12.2235 38.4192 12.3113 38.4192 12.3697 38.4781L12.9545 38.6548C13.4224 38.802 13.8317 39.0671 14.1826 39.4204C14.5334 39.7149 14.8843 40.0977 15.1767 40.5099L15.2937 40.6277C15.5276 40.9221 15.8785 41.0694 16.2293 40.981C16.5802 40.8927 16.9603 40.8632 17.3404 40.8632H17.779C18.0714 40.8632 18.4515 40.9516 18.7731 41.1577C19.0655 41.3344 19.4456 41.4522 19.7965 41.5994H19.8842C20.2351 41.7466 20.6152 41.6877 20.9076 41.4816C21.2 41.246 21.5801 41.1283 21.9602 41.1283L23.3345 41.2166C23.6269 41.2166 23.9193 41.1577 24.0655 40.9221H24.1239L24.621 40.451L24.7672 40.3038C25.0011 40.0093 25.352 39.8915 25.7029 39.8621H27.0186C27.3695 39.8621 27.6911 39.5676 27.8373 39.2732C27.9835 38.9787 28.2759 38.7431 28.6268 38.6843L29.2116 38.5665C29.4455 38.5665 29.6502 38.3604 29.7379 38.0953C29.8256 37.8009 29.9718 37.5653 30.1765 37.3886L30.6443 36.9175C30.9367 36.6231 31.0829 36.3286 31.1414 35.9752L31.0829 36.0047Z" fill="#E6974D"/>
</svg>
