<svg width="71" height="70" viewBox="0 0 71 70" fill="none" xmlns="http://www.w3.org/2000/svg">
<path d="M35.0053 0C15.6776 0 0.00500107 16.0665 0.00500107 35.8862C0.00500107 51.7416 10.0336 65.1934 23.9404 69.9385C25.6895 70.2707 26.3318 69.16 26.3318 68.2121C26.3318 67.3564 26.299 64.5296 26.2843 61.5311C16.5471 63.7017 14.4925 57.2969 14.4925 57.2969C12.9003 53.149 10.6062 52.0458 10.6062 52.0458C7.43074 49.8186 10.8457 49.8646 10.8457 49.8646C14.3602 50.1174 16.2108 53.5625 16.2108 53.5625C19.3327 59.0485 24.3989 57.4626 26.3961 56.5455C26.7103 54.2264 27.6173 52.6429 28.6183 51.7469C20.8442 50.8396 12.672 47.7624 12.672 34.012C12.672 30.094 14.0392 26.8925 16.2781 24.3794C15.9147 23.4755 14.7168 19.8258 16.6171 14.8826C16.6171 14.8826 19.5563 13.9181 26.2449 18.5611C29.0367 17.766 32.0308 17.3674 35.0053 17.3536C37.9797 17.3674 40.9763 17.7658 43.7733 18.5611C50.4537 13.9184 53.3887 14.8828 53.3887 14.8828C55.2938 19.8256 54.0953 23.4758 53.7319 24.3794C55.976 26.8925 57.3339 30.094 57.3339 34.012C57.3339 47.7952 49.1461 50.8301 41.3523 51.7186C42.6077 52.8322 43.7263 55.0161 43.7263 58.3642C43.7263 63.1656 43.6858 67.0301 43.6858 68.2121C43.6858 69.1672 44.3158 70.2862 46.0899 69.9335C59.989 65.1833 70.005 51.7365 70.005 35.8864C70.005 16.0665 54.3346 0 35.0053 0ZM13.1139 51.1206C13.0368 51.2989 12.763 51.3524 12.5139 51.2299C12.2599 51.113 12.1175 50.8699 12.1995 50.6911C12.275 50.5074 12.5492 50.4561 12.8024 50.5792C13.0567 50.6964 13.2016 50.9417 13.1139 51.1206ZM14.8354 52.6956C14.6686 52.8543 14.3421 52.7806 14.1207 52.5299C13.8918 52.2799 13.8489 51.9451 14.0181 51.7842C14.1904 51.6255 14.5068 51.6998 14.7362 51.9499C14.9653 52.203 15.0096 52.5353 14.8354 52.6956ZM16.0167 54.7108C15.802 54.8636 15.4515 54.7204 15.2346 54.4013C15.0203 54.0823 15.0203 53.6996 15.2393 53.5462C15.4567 53.3929 15.802 53.5308 16.0216 53.8476C16.2354 54.172 16.2354 54.5547 16.0164 54.7111L16.0167 54.7108ZM18.0139 57.0448C17.8222 57.2618 17.4134 57.2035 17.1143 56.9074C16.8083 56.6181 16.7232 56.2077 16.9157 55.9907C17.1099 55.7731 17.5209 55.8342 17.8222 56.1281C18.1257 56.4168 18.2187 56.8303 18.0139 57.0448ZM20.5957 57.8326C20.5109 58.1138 20.1171 58.2417 19.7209 58.1222C19.325 57.9992 19.0661 57.67 19.1459 57.386C19.2282 57.1029 19.6236 56.97 20.0228 57.0978C20.4182 57.22 20.678 57.5469 20.5957 57.8329V57.8326ZM23.5335 58.1671C23.5433 58.4629 23.2073 58.7082 22.7911 58.7138C22.3727 58.7233 22.0339 58.4839 22.0293 58.1923C22.0293 57.8937 22.358 57.6507 22.7766 57.6434C23.1928 57.635 23.5335 57.8727 23.5335 58.1671V58.1671ZM26.4196 58.0536C26.4694 58.3423 26.1804 58.6389 25.7669 58.718C25.3609 58.794 24.9846 58.6157 24.9329 58.3294C24.8826 58.0334 25.1771 57.7367 25.5826 57.6602C25.9966 57.5865 26.3668 57.76 26.4196 58.0536Z" fill="#E6974D"/>
</svg>
