<svg width="71" height="70" viewBox="0 0 71 70" fill="none" xmlns="http://www.w3.org/2000/svg">
<path d="M35.69 6.30656C45.0353 6.30656 46.1422 6.34211 49.8327 6.51027C53.2452 6.66613 55.0986 7.23625 56.3321 7.71559C57.9656 8.35051 59.1315 9.10902 60.3563 10.3337C61.5813 11.5585 62.3395 12.7244 62.9744 14.3579C63.4538 15.5914 64.0239 17.4448 64.1797 20.857C64.3479 24.5479 64.3834 25.6547 64.3834 35C64.3834 44.3455 64.3479 45.4524 64.1797 49.143C64.0239 52.5555 63.4538 54.4086 62.9744 55.6421C62.3395 57.2756 61.581 58.4418 60.3563 59.6665C59.1315 60.8912 57.9656 61.6498 56.3321 62.2844C55.0986 62.7638 53.2452 63.3341 49.8327 63.4897C46.1427 63.6582 45.0358 63.6937 35.69 63.6937C26.3439 63.6937 25.237 63.6582 21.547 63.4897C18.1345 63.3339 16.2814 62.7638 15.0479 62.2844C13.4144 61.6498 12.2482 60.8912 11.0235 59.6665C9.79875 58.4415 9.04024 57.2756 8.40559 55.6421C7.92625 54.4089 7.35586 52.5555 7.20028 49.143C7.03184 45.4524 6.99629 44.3455 6.99629 35C6.99629 25.6547 7.03184 24.5479 7.20028 20.8573C7.35614 17.4448 7.92625 15.5914 8.40559 14.3579C9.04024 12.7244 9.79875 11.5585 11.0235 10.3337C12.2485 9.10875 13.4144 8.35051 15.0479 7.71559C16.2811 7.23625 18.1345 6.66613 21.547 6.51027C25.2376 6.34211 26.3445 6.30656 35.69 6.30656M35.69 0C26.1845 0 24.9926 0.0401953 21.2596 0.210547C17.534 0.380625 14.9897 0.972344 12.7636 1.8375C10.4618 2.73191 8.51004 3.92875 6.56426 5.87453C4.61848 7.82031 3.42192 9.77211 2.5275 12.0736C1.66207 14.3 1.07063 16.8443 0.900549 20.5696C0.730198 24.3026 0.690002 25.4945 0.690002 35C0.690002 44.5055 0.730198 45.6974 0.900549 49.4304C1.07063 53.156 1.66207 55.7003 2.5275 57.9264C3.42164 60.2279 4.61848 62.18 6.56426 64.1257C8.51004 66.0715 10.4618 67.2681 12.7636 68.1625C14.99 69.0279 17.534 69.6194 21.2593 69.7895C24.9926 69.9598 26.1845 70 35.69 70C45.1955 70 46.3874 69.9598 50.1204 69.7895C53.8457 69.6194 56.39 69.0279 58.6161 68.1625C60.9179 67.2684 62.8697 66.0715 64.8155 64.1257C66.7613 62.18 67.9581 60.2282 68.8525 57.9264C69.7177 55.7 70.3094 53.156 70.4795 49.4307C70.6498 45.6974 70.69 44.5055 70.69 35C70.69 25.4945 70.6498 24.3026 70.4795 20.5696C70.3094 16.8443 69.7177 14.3 68.8525 12.0739C67.9581 9.77211 66.7613 7.82031 64.8155 5.87453C62.8697 3.92875 60.9179 2.73164 58.6164 1.8375C56.39 0.972344 53.8457 0.380625 50.1204 0.210547C46.3874 0.0401953 45.1955 0 35.69 0ZM35.69 17.027C25.7637 17.027 17.717 25.0742 17.717 35C17.717 44.9263 25.7637 52.973 35.69 52.973C45.6161 52.973 53.663 44.9263 53.663 35C53.663 25.0739 45.6161 17.027 35.69 17.027V17.027ZM35.69 46.6668C29.2467 46.6668 24.0232 41.4433 24.0232 35C24.0232 28.5567 29.2467 23.3332 35.69 23.3332C42.1333 23.3332 47.3568 28.5567 47.3568 35C47.3568 41.4433 42.1333 46.6668 35.69 46.6668ZM58.5729 16.3168C58.5729 18.6367 56.6927 20.5168 54.3729 20.5168C52.0533 20.5168 50.1729 18.6367 50.1729 16.3168C50.1729 13.9973 52.0533 12.1168 54.3729 12.1168C56.6927 12.1168 58.5729 13.9973 58.5729 16.3168V16.3168Z" fill="#E6974D"/>
</svg>
