<svg width="71" height="70" viewBox="0 0 71 70" fill="none" xmlns="http://www.w3.org/2000/svg">
<path d="M60.333 59.6441H49.9613V43.4011C49.9613 39.5279 49.8921 34.5417 44.5669 34.5417C39.1648 34.5417 38.3382 38.762 38.3382 43.1192V59.643H27.9668V26.241H37.9234V30.8057H38.0629C39.0593 29.102 40.4992 27.7003 42.2292 26.7502C43.9592 25.8 45.9145 25.3368 47.887 25.41C58.3993 25.41 60.3374 32.3247 60.3374 41.3202L60.333 59.6441V59.6441ZM16.2636 21.6754C12.9395 21.6759 10.2442 18.9815 10.2436 15.6573C10.2431 12.3331 12.9373 9.63785 16.2614 9.63731C19.5856 9.63649 22.2809 12.3309 22.2814 15.6551C22.2817 17.2515 21.6479 18.7825 20.5193 19.9115C19.3908 21.0406 17.86 21.675 16.2636 21.6754M21.4496 59.6444H11.067V26.241H21.4494V59.6441L21.4496 59.6444ZM65.5037 0.004923H5.85524C3.03609 -0.0267958 0.724181 2.23152 0.689728 5.05067V64.948C0.723087 67.7685 3.03473 70.029 5.85496 69.9995H65.5037C68.33 70.0345 70.6506 67.7739 70.6897 64.948V5.04602C70.6495 2.22141 68.3286 -0.0366395 65.5037 0.000274559" fill="#E6974D"/>
</svg>
